<?xml version="1.0" encoding="UTF-8"?>
<svg id="Layer_1" xmlns="http://www.w3.org/2000/svg" viewBox="0 0 102.35 35.57">
  <defs>
    <style>
      .cls-1 {
        fill: none;
        stroke: #000;
        stroke-miterlimit: 10;
      }
    </style>
  </defs>
  <polygon class="cls-1" points="20.54 1 .87 35.07 40.21 35.07 20.54 1"/>
  <polygon class="cls-1" points="51.18 1 31.51 35.07 70.86 35.07 51.18 1"/>
  <polygon class="cls-1" points="81.81 1 62.14 35.07 101.48 35.07 81.81 1"/>
  <polygon class="cls-1" points="81.81 4.09 64.75 33.64 98.87 33.64 81.81 4.09"/>
  <polygon class="cls-1" points="81.81 6.99 67.39 32.21 96.23 32.21 81.81 6.99"/>
  <polygon class="cls-1" points="81.81 10.77 70.55 30.46 93.07 30.46 81.81 10.77"/>
  <polygon class="cls-1" points="81.81 13.48 72.86 29.15 90.77 29.15 81.81 13.48"/>
  <polygon class="cls-1" points="81.81 16.8 75.3 27.56 88.32 27.56 81.81 16.8"/>
  <line class="cls-1" x1="51.18" y1="1" x2="51.18" y2="35.07"/>
  <line class="cls-1" x1="53.65" y1="5.27" x2="53.65" y2="35.07"/>
  <line class="cls-1" x1="56.09" y1="9.5" x2="56.09" y2="35.07"/>
  <line class="cls-1" x1="58.39" y1="13.48" x2="58.39" y2="35.07"/>
  <line class="cls-1" x1="60.58" y1="17.28" x2="60.58" y2="35.07"/>
  <line class="cls-1" x1="62.91" y1="21.32" x2="62.91" y2="35.07"/>
  <line class="cls-1" x1="64.75" y1="25" x2="64.75" y2="35.07"/>
  <line class="cls-1" x1="67.39" y1="30.04" x2="67.39" y2="35.07"/>
</svg>